<svg xmlns="http://www.w3.org/2000/svg" viewBox="0 0 800 500" preserveAspectRatio="xMidYMid slice" role="img" aria-label="Usina solar e operação rural">
  <defs>
    <linearGradient id="sky" x1="0" y1="0" x2="0" y2="1"><stop offset="0" stop-color="#4bb9c9"/><stop offset="1" stop-color="#e0f4ec"/></linearGradient>
    <linearGradient id="panel" x1="0" y1="0" x2="1" y2="1"><stop offset="0" stop-color="#0e3a44"/><stop offset="1" stop-color="#07232b"/></linearGradient>
    <radialGradient id="sun" cx="50%" cy="50%" r="50%"><stop offset="0" stop-color="#eaf7a8"/><stop offset="1" stop-color="#84cc16"/></radialGradient>
  </defs>
  <rect width="800" height="500" fill="url(#sky)"/>
  <circle cx="150" cy="110" r="92" fill="#a3e635" opacity="0.22"/>
  <circle cx="150" cy="110" r="58" fill="url(#sun)"/>
  <rect y="340" width="800" height="160" fill="#2dbfa6"/>
  <rect y="340" width="800" height="160" fill="#0d9488" opacity="0.4"/>
  <path d="M0 360 Q400 320 800 360 L800 380 Q400 348 0 380 Z" fill="#0f766e" opacity="0.5"/>
  <rect x="610" y="250" width="120" height="110" fill="#0d9488"/>
  <polygon points="600,252 670,205 740,252" fill="#0b7d70"/>
  <rect x="556" y="262" width="44" height="98" fill="#cfdedb"/>
  <ellipse cx="578" cy="262" rx="22" ry="12" fill="#aec4c0"/>
  <g transform="translate(60,300)">
    <rect x="60" y="56" width="10" height="44" fill="#7d9295"/><rect x="190" y="48" width="10" height="44" fill="#7d9295"/>
    <g transform="skewY(-12)"><rect width="250" height="80" rx="6" fill="url(#panel)"/><g stroke="#2dd4bf" stroke-width="2.5" opacity="0.55"><line x1="62" y1="0" x2="62" y2="80"/><line x1="125" y1="0" x2="125" y2="80"/><line x1="188" y1="0" x2="188" y2="80"/><line x1="0" y1="40" x2="250" y2="40"/></g><rect width="250" height="80" rx="6" fill="none" stroke="#84cc16" stroke-width="5"/></g>
  </g>
  <g transform="translate(330,330)">
    <rect x="60" y="56" width="10" height="44" fill="#7d9295"/><rect x="190" y="48" width="10" height="44" fill="#7d9295"/>
    <g transform="skewY(-12)"><rect width="250" height="80" rx="6" fill="url(#panel)"/><g stroke="#2dd4bf" stroke-width="2.5" opacity="0.55"><line x1="62" y1="0" x2="62" y2="80"/><line x1="125" y1="0" x2="125" y2="80"/><line x1="188" y1="0" x2="188" y2="80"/><line x1="0" y1="40" x2="250" y2="40"/></g><rect width="250" height="80" rx="6" fill="none" stroke="#84cc16" stroke-width="5"/></g>
  </g>
</svg>
