<svg xmlns="http://www.w3.org/2000/svg" viewBox="0 0 800 500" preserveAspectRatio="xMidYMid slice" role="img" aria-label="Prédio comercial com energia solar">
  <defs>
    <linearGradient id="sky" x1="0" y1="0" x2="0" y2="1"><stop offset="0" stop-color="#4bb9c9"/><stop offset="1" stop-color="#ddf3f1"/></linearGradient>
    <linearGradient id="panel" x1="0" y1="0" x2="1" y2="1"><stop offset="0" stop-color="#0e3a44"/><stop offset="1" stop-color="#07232b"/></linearGradient>
    <radialGradient id="sun" cx="50%" cy="50%" r="50%"><stop offset="0" stop-color="#eaf7a8"/><stop offset="1" stop-color="#84cc16"/></radialGradient>
  </defs>
  <rect width="800" height="500" fill="url(#sky)"/>
  <circle cx="660" cy="100" r="92" fill="#a3e635" opacity="0.22"/>
  <circle cx="660" cy="100" r="58" fill="url(#sun)"/>
  <rect y="372" width="800" height="128" fill="#8fa3a6"/>
  <rect y="372" width="800" height="14" fill="#7d9295"/>
  <rect x="430" y="200" width="300" height="200" fill="#eef5f4"/>
  <rect x="430" y="200" width="300" height="200" fill="none" stroke="#cfe0de" stroke-width="3"/>
  <rect x="430" y="200" width="300" height="34" fill="#0d9488"/>
  <g fill="#bfeae5">
    <rect x="452" y="252" width="40" height="40"/><rect x="510" y="252" width="40" height="40"/><rect x="568" y="252" width="40" height="40"/><rect x="626" y="252" width="40" height="40"/><rect x="684" y="252" width="22" height="40"/>
    <rect x="452" y="306" width="40" height="40"/><rect x="510" y="306" width="40" height="40"/><rect x="568" y="306" width="40" height="40"/><rect x="626" y="306" width="40" height="40"/><rect x="684" y="306" width="22" height="40"/>
  </g>
  <rect x="556" y="356" width="60" height="44" fill="#0d9488"/>
  <g transform="translate(70,235)">
    <rect x="118" y="170" width="14" height="60" fill="#7d9295"/><rect x="250" y="158" width="14" height="60" fill="#7d9295"/>
    <g transform="skewY(-13)">
      <rect x="0" y="0" width="300" height="160" rx="8" fill="url(#panel)"/>
      <g stroke="#2dd4bf" stroke-width="3" opacity="0.6"><line x1="75" y1="0" x2="75" y2="160"/><line x1="150" y1="0" x2="150" y2="160"/><line x1="225" y1="0" x2="225" y2="160"/><line x1="0" y1="53" x2="300" y2="53"/><line x1="0" y1="106" x2="300" y2="106"/></g>
      <rect x="0" y="0" width="300" height="160" rx="8" fill="none" stroke="#84cc16" stroke-width="5"/>
      <polygon points="6,8 70,8 20,150 6,150" fill="#ffffff" opacity="0.10"/>
    </g>
  </g>
</svg>
